<svg xmlns="http://www.w3.org/2000/svg" xmlns:xlink="http://www.w3.org/1999/xlink" viewBox="0 0 500 500"><defs><style>.a{mask:url(#a);filter:url(#g);}.b{mix-blend-mode:multiply;fill:url(#c);}.c{fill:url(#d);}.d{fill:url(#e);}.e{fill:#bc30a0;}.f{mask:url(#f);}.g{fill:url(#h);}.h{filter:url(#b);}</style><filter id="b" x="0" y="-8442" width="499.73" height="32766" filterUnits="userSpaceOnUse" color-interpolation-filters="sRGB"><feFlood flood-color="#fff" result="bg"/><feBlend in="SourceGraphic" in2="bg"/></filter><mask id="a" x="0" y="-8442" width="499.73" height="32766" maskUnits="userSpaceOnUse"><g class="h"/></mask><linearGradient id="c" x1="-431.22" y1="522.37" x2="-210.15" y2="-4.89" gradientTransform="translate(-68 502) rotate(180)" gradientUnits="userSpaceOnUse"><stop offset="0.23"/><stop offset="0.45" stop-color="gray"/><stop offset="0.75" stop-color="#fff"/><stop offset="0.96" stop-color="#fff"/></linearGradient><linearGradient id="d" x1="422.74" y1="463.6" x2="61.35" y2="20.56" gradientTransform="matrix(1, 0, 0, -1, 0, 502)" gradientUnits="userSpaceOnUse"><stop offset="0" stop-color="#ae3dae"/><stop offset="0.05" stop-color="#b23ba6"/><stop offset="0.12" stop-color="#bd368e"/><stop offset="0.21" stop-color="#ce2e69"/><stop offset="0.32" stop-color="#e62335"/><stop offset="0.42" stop-color="#ff1800"/></linearGradient><linearGradient id="e" x1="311.23" y1="354.98" x2="179.97" y2="134.29" gradientTransform="matrix(1, 0, 0, -1, 0, 502)" gradientUnits="userSpaceOnUse"><stop offset="0" stop-color="#e12f6a"/><stop offset="0.17" stop-color="#ea3751"/><stop offset="0.36" stop-color="#f13d3e"/><stop offset="0.55" stop-color="#f64133"/><stop offset="0.75" stop-color="#f7422f"/><stop offset="0.79" stop-color="#f74c2f"/><stop offset="0.87" stop-color="#f7652f"/><stop offset="0.98" stop-color="#f78f2e"/><stop offset="1" stop-color="#f79a2e"/></linearGradient><filter id="g" x="0" y="0.14" width="499.73" height="499.73" filterUnits="userSpaceOnUse" color-interpolation-filters="sRGB"><feFlood flood-color="#fff" result="bg"/><feBlend in="SourceGraphic" in2="bg"/></filter><mask id="f" x="0" y="0.14" width="499.73" height="499.73" maskUnits="userSpaceOnUse"><g class="a"><path class="b" d="M0,250C0,318,.27,326.44,1.51,353S7,397.81,13.15,413.7A123.19,123.19,0,0,0,41.92,458a121.42,121.42,0,0,0,44.24,28.76c15.89,6.17,34.11,10.41,60.69,11.65s35.2,1.5,103,1.5,76.44-.27,103-1.5,44.79-5.48,60.68-11.65A123.29,123.29,0,0,0,457.81,458a121.62,121.62,0,0,0,28.77-44.25c6.16-15.89,10.41-34.11,11.64-60.69s1.51-35.2,1.51-103-.28-76.44-1.51-103-5.48-44.8-11.64-60.69a123.32,123.32,0,0,0-28.77-44.25,121.46,121.46,0,0,0-44.25-28.76C397.67,7.12,379.45,2.88,352.88,1.64s-35.21-1.5-103-1.5-76.44.27-103,1.5-44.8,5.48-60.69,11.65A123.26,123.26,0,0,0,41.92,42.05,121.36,121.36,0,0,0,13.15,86.3C7,102.19,2.74,120.41,1.51,147S0,182.05,0,250Zm45.07,0c0-66.71.27-74.66,1.51-101,1.09-24.38,5.2-37.67,8.63-46.44A77.65,77.65,0,0,1,74,73.84c8.77-8.77,17.13-14.11,28.77-18.77,8.77-3.43,22.05-7.54,46.44-8.63,26.3-1.23,34.24-1.51,101-1.51s74.65.28,101,1.51c24.38,1.09,37.67,5.2,46.43,8.63A77.59,77.59,0,0,1,426.3,73.84c8.77,8.76,14.11,17.12,18.77,28.76,3.42,8.77,7.53,22.06,8.63,46.44,1.23,26.3,1.51,34.25,1.51,101s-.28,74.66-1.51,101c-1.1,24.38-5.21,37.67-8.63,46.44a77.55,77.55,0,0,1-18.77,28.76c-8.77,8.77-17.12,14.11-28.77,18.77-8.76,3.43-22,7.54-46.43,8.63-26.31,1.23-34.25,1.51-101,1.51s-74.66-.28-101-1.51c-24.39-1.09-37.67-5.2-46.44-8.63A77.67,77.67,0,0,1,74,426.16C65.21,417.4,59.86,409,55.21,397.4c-3.43-8.77-7.54-22.06-8.63-46.44C45.34,324.66,45.07,316.71,45.07,250Z"/></g></mask><linearGradient id="h" x1="-431.22" y1="522.37" x2="-210.15" y2="-4.89" gradientTransform="translate(-68 502) rotate(180)" gradientUnits="userSpaceOnUse"><stop offset="0.23" stop-color="#9e35a5"/><stop offset="0.45" stop-color="#d42f7f"/><stop offset="0.75" stop-color="#f7772e"/><stop offset="0.96" stop-color="#fef780"/></linearGradient></defs><path class="c" d="M498.49,147c-1.23-26.58-5.48-44.8-11.64-60.69a123.19,123.19,0,0,0-28.77-44.25,121.42,121.42,0,0,0-44.24-28.76C398,7.12,379.73,2.88,353.15,1.64S318,.14,250.14.14s-76.44.27-103,1.5S102.33,7.12,86.44,13.29A123.29,123.29,0,0,0,42.19,42.05,121.62,121.62,0,0,0,13.42,86.3C7.26,102.19,3,120.41,1.78,147S.27,182.19.27,250s.28,76.44,1.51,103,5.48,44.8,11.64,60.69A123.32,123.32,0,0,0,42.19,458a121.46,121.46,0,0,0,44.25,28.76c15.89,6.17,34.11,10.41,60.68,11.65,26.72,1.23,35.21,1.5,103,1.5s76.44-.27,103-1.5,44.8-5.48,60.69-11.65A123.26,123.26,0,0,0,458.08,458a121.36,121.36,0,0,0,28.77-44.25c6.16-15.89,10.41-34.11,11.64-60.69S500,317.81,500,250,499.73,173.56,498.49,147ZM453.56,351c-1.09,24.38-5.2,37.67-8.63,46.44a77.55,77.55,0,0,1-18.77,28.76c-8.76,8.77-17.12,14.11-28.76,18.77-8.77,3.43-22.06,7.54-46.44,8.63-26.3,1.23-34.25,1.51-101,1.51s-74.66-.28-101-1.51c-24.38-1.09-37.67-5.2-46.44-8.63a77.55,77.55,0,0,1-28.76-18.77C65.07,417.4,59.73,409,55.07,397.4c-3.43-8.77-7.54-22.06-8.63-46.44-1.23-26.3-1.51-34.25-1.51-101s.28-74.66,1.51-101c1.09-24.38,5.2-37.67,8.63-46.44A77.55,77.55,0,0,1,73.84,73.84C82.6,65.07,91,59.73,102.6,55.07c8.77-3.43,22.06-7.54,46.44-8.63,26.3-1.23,34.25-1.51,101-1.51s74.66.28,101,1.51c24.38,1.09,37.67,5.2,46.44,8.63a77.55,77.55,0,0,1,28.76,18.77c8.77,8.76,14.11,17.12,18.77,28.76,3.43,8.77,7.54,22.06,8.63,46.44,1.23,26.3,1.51,34.25,1.51,101S454.66,324.66,453.56,351Z"/><path class="d" d="M250,121.64A128.36,128.36,0,1,0,378.36,250,128.36,128.36,0,0,0,250,121.64Zm0,211.65A83.29,83.29,0,1,1,333.29,250,83.25,83.25,0,0,1,250,333.29Z"/><circle class="e" cx="383.42" cy="116.58" r="30"/><g class="f"><path class="g" d="M0,250C0,318,.27,326.44,1.51,353S7,397.81,13.15,413.7A123.19,123.19,0,0,0,41.92,458a121.42,121.42,0,0,0,44.24,28.76c15.89,6.17,34.11,10.41,60.69,11.65s35.2,1.5,103,1.5,76.44-.27,103-1.5,44.79-5.48,60.68-11.65A123.29,123.29,0,0,0,457.81,458a121.62,121.62,0,0,0,28.77-44.25c6.16-15.89,10.41-34.11,11.64-60.69s1.51-35.2,1.51-103-.28-76.44-1.51-103-5.48-44.8-11.64-60.69a123.32,123.32,0,0,0-28.77-44.25,121.46,121.46,0,0,0-44.25-28.76C397.67,7.12,379.45,2.88,352.88,1.64s-35.21-1.5-103-1.5-76.44.27-103,1.5-44.8,5.48-60.69,11.65A123.26,123.26,0,0,0,41.92,42.05,121.36,121.36,0,0,0,13.15,86.3C7,102.19,2.74,120.41,1.51,147S0,182.05,0,250Zm45.07,0c0-66.71.27-74.66,1.51-101,1.09-24.38,5.2-37.67,8.63-46.44A77.65,77.65,0,0,1,74,73.84c8.77-8.77,17.13-14.11,28.77-18.77,8.77-3.43,22.05-7.54,46.44-8.63,26.3-1.23,34.24-1.51,101-1.51s74.65.28,101,1.51c24.38,1.09,37.67,5.2,46.43,8.63A77.59,77.59,0,0,1,426.3,73.84c8.77,8.76,14.11,17.12,18.77,28.76,3.42,8.77,7.53,22.06,8.63,46.44,1.23,26.3,1.51,34.25,1.51,101s-.28,74.66-1.51,101c-1.1,24.38-5.21,37.67-8.63,46.44a77.55,77.55,0,0,1-18.77,28.76c-8.77,8.77-17.12,14.11-28.77,18.77-8.76,3.43-22,7.54-46.43,8.63-26.31,1.23-34.25,1.51-101,1.51s-74.66-.28-101-1.51c-24.39-1.09-37.67-5.2-46.44-8.63A77.67,77.67,0,0,1,74,426.16C65.21,417.4,59.86,409,55.21,397.4c-3.43-8.77-7.54-22.06-8.63-46.44C45.34,324.66,45.07,316.71,45.07,250Z"/></g></svg>