<?xml version="1.0" encoding="UTF-8" standalone="no"?><!DOCTYPE svg PUBLIC "-//W3C//DTD SVG 1.1//EN" "http://www.w3.org/Graphics/SVG/1.1/DTD/svg11.dtd"><svg width="100%" height="100%" viewBox="0 0 2488 459" version="1.1" xmlns="http://www.w3.org/2000/svg" xmlns:xlink="http://www.w3.org/1999/xlink" xml:space="preserve" xmlns:serif="http://www.serif.com/" style="fill-rule:evenodd;clip-rule:evenodd;stroke-linecap:round;stroke-linejoin:round;stroke-miterlimit:1.5;"><rect id="Artboard1" x="0" y="-0" width="2487.3" height="458.987" style="fill:none;"/><g><g><path d="M182.008,309.167c-11.103,-0 -22.071,-1.76 -32.904,-5.281c-10.832,-3.521 -20.379,-8.531 -28.638,-15.03c-8.26,-6.5 -14.015,-14.218 -17.265,-23.155l7.718,0l0,39.404l-38.997,-0l0,-78.807l34.935,-0c2.979,9.749 7.515,18.348 13.609,25.795c6.093,7.447 13.676,13.27 22.748,17.467c9.072,4.198 19.431,6.297 31.076,6.297c10.562,-0 18.957,-2.505 25.185,-7.515c6.229,-5.01 9.344,-12.119 9.344,-21.327c-0,-7.583 -1.422,-13.54 -4.266,-17.873c-2.843,-4.334 -7.515,-7.786 -14.014,-10.359c-6.5,-2.573 -15.031,-4.807 -25.592,-6.703l-20.718,-4.062c-23.831,-4.875 -42.111,-13.067 -54.839,-24.576c-12.728,-11.51 -19.093,-27.42 -19.093,-47.731c0,-13.812 3.182,-25.727 9.547,-35.748c6.364,-10.02 15.233,-17.806 26.607,-23.357c11.374,-5.552 24.644,-8.328 39.81,-8.328c17.602,0 32.836,3.385 45.699,10.156c12.864,6.77 22.681,16.113 29.451,28.029l-8.936,-0l-0,-33.716l36.559,-0l0,67.026l-33.716,0c-2.166,-5.958 -5.416,-11.848 -9.749,-17.671c-4.333,-5.822 -10.359,-10.697 -18.077,-14.623c-7.718,-3.927 -17.535,-5.891 -29.451,-5.891c-10.562,0 -18.754,2.37 -24.576,7.109c-5.823,4.739 -8.734,11.171 -8.734,19.296c-0,9.207 3.656,16.316 10.968,21.326c7.312,5.01 18.686,9.005 34.122,11.984l12.593,2.437c17.603,2.979 32.227,7.447 43.872,13.405c11.645,5.958 20.243,13.812 25.795,23.561c5.552,9.749 8.328,22.071 8.328,36.966c-0,14.082 -3.183,26.472 -9.547,37.169c-6.364,10.697 -15.368,19.093 -27.013,25.186c-11.645,6.093 -25.592,9.14 -41.841,9.14Z" style="fill:#008080;fill-rule:nonzero;"/><path d="M281.182,305.105l-0,-30.467l24.373,0l-0,-175.893l-23.967,-0l-0,-30.061l72.713,0l0,150.302l58.902,-45.09l-24.373,-0l0,-30.467l89.775,0l-0,30.467l-19.499,-0l-56.058,44.278l54.027,56.464l22.748,0l0,30.467l-53.214,-0l-72.308,-79.213l0,48.746l22.343,0l-0,30.467l-95.462,-0Z" style="fill:#008080;fill-rule:nonzero;"/><path d="M492.823,305.105l-0,-30.467l24.779,0l-0,-100.742l-24.373,-0l-0,-30.467l73.526,0l-0,131.209l23.56,0l0,30.467l-97.492,-0Zm45.09,-193.361c-8.937,-0 -16.249,-2.708 -21.936,-8.125c-5.687,-5.416 -8.531,-12.322 -8.531,-20.717c0,-8.666 2.844,-15.707 8.531,-21.123c5.687,-5.417 12.999,-8.125 21.936,-8.125c8.937,0 16.181,2.708 21.733,8.125c5.551,5.416 8.327,12.457 8.327,21.123c0.271,8.395 -2.437,15.301 -8.124,20.717c-5.687,5.417 -12.999,8.125 -21.936,8.125Z" style="fill:#008080;fill-rule:nonzero;"/><path d="M605.346,305.105l-0,-30.467l23.967,0l-0,-175.893l-23.561,-0l-0,-30.061l72.307,0l-0,205.954l22.342,0l0,30.467l-95.055,-0Z" style="fill:#008080;fill-rule:nonzero;"/><path d="M715.025,305.105l0,-30.467l23.967,0l0,-175.893l-23.561,-0l0,-30.061l72.307,0l0,205.954l22.343,0l-0,30.467l-95.056,-0Z" style="fill:#008080;fill-rule:nonzero;"/></g><path d="M834.454,305.105l-0,-34.123l26.404,0l0,-164.113l-26.404,0l-0,-34.122l211.641,-0l-0,77.588l-36.56,-0l-0,-43.466l-93.025,0l0,61.746l47.934,-0l0,-23.561l28.436,-0l-0,81.65l-28.029,0l-0,-24.779l-48.341,-0l0,69.057l28.436,0l-0,34.123l-110.492,-0Z" style="fill:#008080;fill-rule:nonzero;"/><path d="M1133.79,309.573c-17.603,0 -33.107,-3.52 -46.513,-10.562c-13.405,-7.041 -23.763,-16.993 -31.075,-29.857c-7.312,-12.863 -10.968,-27.826 -10.968,-44.887c-0,-17.332 3.656,-32.295 10.968,-44.887c7.312,-12.593 17.67,-22.41 31.075,-29.451c13.406,-7.042 28.91,-10.562 46.513,-10.562c17.873,-0 33.513,3.52 46.918,10.562c13.405,7.041 23.832,16.858 31.279,29.451c7.447,12.592 11.171,27.419 11.171,44.481c0,17.061 -3.724,32.023 -11.171,44.887c-7.447,12.864 -17.874,22.884 -31.279,30.06c-13.405,7.177 -29.045,10.765 -46.918,10.765Zm-0,-37.372c8.666,-0 16.181,-1.964 22.545,-5.89c6.364,-3.927 11.306,-9.479 14.827,-16.655c3.521,-7.177 5.281,-15.775 5.281,-25.795c-0,-9.75 -1.76,-18.145 -5.281,-25.186c-3.521,-7.041 -8.463,-12.457 -14.827,-16.249c-6.364,-3.791 -13.879,-5.687 -22.545,-5.687c-8.396,0 -15.708,1.896 -21.936,5.687c-6.229,3.792 -11.104,9.276 -14.624,16.452c-3.521,7.177 -5.281,15.64 -5.281,25.389c-0,9.749 1.76,18.212 5.281,25.389c3.52,7.176 8.395,12.728 14.624,16.655c6.228,3.926 13.54,5.89 21.936,5.89Z" style="fill:#008080;fill-rule:nonzero;"/><path d="M1241.84,305.105l0,-30.467l24.78,0l-0,-100.742l-24.78,-0l0,-30.467l73.932,0l0,49.153l-6.499,-0c3.791,-13.541 8.327,-24.035 13.608,-31.482c5.281,-7.448 11.104,-12.729 17.468,-15.843c6.364,-3.114 12.66,-4.672 18.889,-4.672c5.687,0 11.103,0.61 16.249,1.828c5.145,1.219 10.155,3.183 15.03,5.891l-10.562,40.622c-4.333,-2.438 -9.14,-4.469 -14.421,-6.094c-5.28,-1.624 -10.9,-2.437 -16.858,-2.437c-8.124,0 -15.572,2.844 -22.342,8.531c-6.77,5.687 -10.155,14.488 -10.155,26.404l-0.407,59.308l25.186,0l0,30.467l-99.118,-0Z" style="fill:#008080;fill-rule:nonzero;"/><path d="M1495.73,309.573c-18.145,0 -34.123,-3.453 -47.934,-10.358c-13.811,-6.906 -24.644,-16.723 -32.498,-29.451c-7.853,-12.729 -11.78,-27.894 -11.78,-45.497c-0,-17.061 3.791,-31.956 11.374,-44.684c7.583,-12.729 17.942,-22.613 31.076,-29.654c13.134,-7.042 27.962,-10.562 44.481,-10.562c16.791,-0 31.211,3.52 43.263,10.562c12.051,7.041 21.258,16.79 27.623,29.247c6.364,12.458 9.546,26.946 9.546,43.466l-0,10.155l-136.49,0l0.406,-23.154l89.775,-0c-0,-8.124 -1.422,-14.963 -4.266,-20.514c-2.843,-5.552 -6.905,-9.749 -12.186,-12.593c-5.281,-2.844 -11.442,-4.265 -18.483,-4.265c-8.125,-0 -15.098,1.895 -20.921,5.687c-5.822,3.791 -10.358,9.275 -13.608,16.452c-3.25,7.176 -4.875,15.91 -4.875,26.201c0,11.103 2.167,20.514 6.5,28.232c4.333,7.718 10.223,13.609 17.67,17.671c7.448,4.062 16.182,6.093 26.202,6.093c10.291,0 20.108,-1.896 29.451,-5.687c9.343,-3.791 17.535,-8.801 24.576,-15.03l14.218,29.654c-8.396,8.124 -18.754,14.827 -31.076,20.108c-12.322,5.281 -26.337,7.921 -42.044,7.921Z" style="fill:#008080;fill-rule:nonzero;"/><path d="M1686.25,309.167c-9.478,-0 -18.347,-1.151 -26.607,-3.453c-8.26,-2.302 -15.369,-5.552 -21.327,-9.749c-5.958,-4.198 -10.426,-9.005 -13.405,-14.421l9.343,0.812l0,22.749l-32.498,-0l0,-54.028l30.061,0l2.031,23.155l-8.531,-16.249c4.604,7.312 11.442,13.067 20.514,17.265c9.073,4.197 18.483,6.296 28.233,6.296c7.853,-0 14.285,-1.49 19.295,-4.468c5.01,-2.979 7.515,-7.312 7.515,-13c0,-6.499 -2.437,-11.171 -7.312,-14.014c-4.874,-2.844 -12.728,-5.484 -23.56,-7.921l-17.468,-3.656c-17.603,-4.063 -30.534,-9.75 -38.794,-17.062c-8.26,-7.312 -12.39,-18.28 -12.39,-32.904c0,-15.436 5.552,-27.487 16.655,-36.153c11.104,-8.666 25.592,-12.999 43.466,-12.999c8.395,-0 16.384,1.151 23.967,3.453c7.583,2.302 14.15,5.281 19.702,8.937c5.551,3.656 9.41,7.921 11.577,12.795l-10.562,-0.406l0,-21.123l32.904,-0l-0,52.808l-30.06,0l-4.063,-30.466l8.531,19.905c-1.896,-3.792 -5.078,-7.041 -9.546,-9.75c-4.469,-2.708 -9.479,-4.874 -15.03,-6.499c-5.552,-1.625 -11.171,-2.437 -16.858,-2.437c-6.5,-0 -12.255,1.421 -17.265,4.265c-5.01,2.843 -7.515,7.109 -7.515,12.796c0,4.874 1.964,8.598 5.89,11.171c3.927,2.573 9.953,4.807 18.077,6.703l18.28,4.062c11.645,2.708 21.733,6.025 30.264,9.952c8.53,3.927 15.097,9.343 19.701,16.249c4.604,6.906 6.906,16.181 6.906,27.826c-0,10.833 -2.776,19.973 -8.328,27.42c-5.551,7.447 -12.931,12.999 -22.139,16.655c-9.207,3.656 -19.092,5.484 -29.654,5.484Z" style="fill:#008080;fill-rule:nonzero;"/><path d="M1842.23,305.105c-16.249,-0 -28.639,-3.859 -37.169,-11.578c-8.531,-7.718 -12.796,-19.837 -12.796,-36.356l-0,-83.275l-22.749,-0l0,-30.467l22.343,0l-0,-53.215l49.558,-10.562l0,63.777l38.591,0l0,30.467l-38.591,-0l0,75.963c0,8.937 1.49,15.165 4.469,18.686c2.979,3.52 8.124,5.281 15.436,5.281l20.718,-0l-0,31.279l-39.81,-0Z" style="fill:#008080;fill-rule:nonzero;"/></g><g><path d="M2417.59,194.369c0,-21.195 -17.207,-38.402 -38.401,-38.402l-432.345,0c-21.194,0 -38.401,17.207 -38.401,38.402l-0,76.803c-0,21.194 17.207,38.401 38.401,38.401l432.345,0c21.194,0 38.401,-17.207 38.401,-38.401l0,-76.803Z" style="fill:#fff;stroke:#008080;stroke-width:7px;"/><text x="1920.2px" y="283.401px" style="font-family:'SFProRounded-Regular', 'SF Pro Rounded';font-size:145.534px;fill:#008080;">Pr<tspan x="2045.55px " y="283.401px ">e</tspan>view</text></g></svg>