<?xml version="1.0" encoding="UTF-8" standalone="no"?><!DOCTYPE svg PUBLIC "-//W3C//DTD SVG 1.1//EN" "http://www.w3.org/Graphics/SVG/1.1/DTD/svg11.dtd"><svg width="100%" height="100%" viewBox="0 0 7549 1067" version="1.1" xmlns="http://www.w3.org/2000/svg" xmlns:xlink="http://www.w3.org/1999/xlink" xml:space="preserve" xmlns:serif="http://www.serif.com/" style="fill-rule:evenodd;clip-rule:evenodd;stroke-linejoin:round;stroke-miterlimit:2;"><g><path d="M465.461,1064.64c-46.264,-0 -91.964,-7.335 -137.1,-22.004c-45.135,-14.669 -84.911,-35.544 -119.327,-62.625c-34.416,-27.082 -58.394,-59.241 -71.935,-96.478l32.159,0l0,164.181l-162.488,-0l0,-328.362l145.563,0c12.412,40.623 31.312,76.449 56.701,107.48c25.389,31.03 56.984,55.291 94.785,72.781c37.801,17.49 80.962,26.235 129.483,26.235c44.007,-0 78.987,-10.438 104.94,-31.313c25.953,-20.875 38.929,-50.495 38.929,-88.861c0,-31.595 -5.924,-56.419 -17.772,-74.473c-11.848,-18.055 -31.313,-32.442 -58.394,-43.161c-27.081,-10.72 -62.626,-20.029 -106.633,-27.928l-86.322,-16.926c-99.298,-20.311 -175.464,-54.445 -228.499,-102.401c-53.034,-47.957 -79.551,-114.25 -79.551,-198.879c0,-57.548 13.259,-107.197 39.776,-148.947c26.517,-41.751 63.472,-74.192 110.864,-97.324c47.392,-23.132 102.684,-34.698 165.873,-34.698c73.346,0 136.818,14.105 190.416,42.315c53.599,28.209 94.503,67.139 122.713,116.788l-37.237,0l-0,-140.485l152.332,0l0,279.277l-140.484,-0c-9.027,-24.825 -22.568,-49.367 -40.622,-73.627c-18.055,-24.261 -43.161,-44.572 -75.32,-60.934c-32.159,-16.361 -73.064,-24.542 -122.713,-24.542c-44.007,-0 -78.141,9.873 -102.401,29.62c-24.26,19.747 -36.391,46.546 -36.391,80.398c0,38.365 15.234,67.985 45.7,88.861c30.467,20.875 77.859,37.519 142.177,49.931l52.47,10.155c73.346,12.413 134.279,31.031 182.8,55.856c48.52,24.824 84.347,57.548 107.479,98.17c23.132,40.622 34.698,91.963 34.698,154.025c-0,58.676 -13.259,110.3 -39.776,154.871c-26.517,44.572 -64.036,79.552 -112.557,104.941c-48.521,25.388 -106.633,38.083 -174.336,38.083Z" style="fill:#008080;fill-rule:nonzero;"/><path d="M878.685,1047.71l-0,-126.944l101.555,0l-0,-732.889l-99.863,-0l0,-125.251l302.973,-0l-0,626.256l245.425,-187.877l-101.555,0l-0,-126.944l374.061,0l-0,126.944l-81.244,0l-233.577,184.492l225.114,235.269l94.785,0l-0,126.944l-221.729,-0l-301.28,-330.054l-0,203.11l93.092,0l0,126.944l-397.757,-0Z" style="fill:#008080;fill-rule:nonzero;"/><path d="M1760.52,1047.71l0,-126.944l103.248,0l0,-419.761l-101.555,0l-0,-126.944l306.358,0l-0,546.705l98.17,0l-0,126.944l-406.221,-0Zm187.877,-805.67c-37.237,-0 -67.703,-11.284 -91.399,-33.852c-23.697,-22.568 -35.545,-51.342 -35.545,-86.322c0,-36.108 11.848,-65.447 35.545,-88.014c23.696,-22.568 54.162,-33.852 91.399,-33.852c37.237,0 67.422,11.284 90.554,33.852c23.132,22.567 34.698,51.906 34.698,88.014c1.128,34.98 -10.156,63.754 -33.852,86.322c-23.696,22.568 -54.163,33.852 -91.4,33.852Z" style="fill:#008080;fill-rule:nonzero;"/><path d="M2229.37,1047.71l0,-126.944l99.863,0l-0,-732.889l-98.17,-0l-0,-125.251l301.28,-0l-0,858.14l93.092,0l0,126.944l-396.065,-0Z" style="fill:#008080;fill-rule:nonzero;"/><path d="M2686.37,1047.71l0,-126.944l99.863,0l-0,-732.889l-98.17,-0l-0,-125.251l301.28,-0l-0,858.14l93.092,0l0,126.944l-396.065,-0Z" style="fill:#008080;fill-rule:nonzero;"/><path d="M3183.99,1047.71l0,-142.177l110.018,-0l0,-683.804l-110.018,-0l0,-142.178l881.837,0l-0,323.284l-152.333,0l0,-181.106l-387.602,-0l0,257.272l199.725,0l0,-98.169l118.481,-0l0,340.209l-116.788,0l-0,-103.248l-201.418,0l0,287.74l118.481,-0l0,142.177l-460.383,-0Z" style="fill:#008080;fill-rule:nonzero;"/><path d="M4431.2,1066.33c-73.345,0 -137.945,-14.669 -193.801,-44.007c-55.855,-29.338 -99.016,-70.806 -129.483,-124.405c-30.466,-53.598 -45.699,-115.942 -45.699,-187.03c-0,-72.217 15.233,-134.561 45.699,-187.031c30.467,-52.47 73.628,-93.374 129.483,-122.712c55.856,-29.339 120.456,-44.008 193.801,-44.008c74.474,0 139.638,14.669 195.494,44.008c55.855,29.338 99.298,70.242 130.329,122.712c31.03,52.47 46.546,114.249 46.546,185.338c-0,71.089 -15.516,133.432 -46.546,187.031c-31.031,53.598 -74.474,95.349 -130.329,125.251c-55.856,29.902 -121.02,44.853 -195.494,44.853Zm0,-155.717c36.109,-0 67.421,-8.181 93.939,-24.543c26.517,-16.362 47.11,-39.494 61.779,-69.396c14.669,-29.902 22.004,-65.729 22.004,-107.479c-0,-40.622 -7.335,-75.602 -22.004,-104.94c-14.669,-29.338 -35.262,-51.906 -61.779,-67.704c-26.518,-15.797 -57.83,-23.696 -93.939,-23.696c-34.98,0 -65.446,7.899 -91.399,23.696c-25.953,15.798 -46.264,38.648 -60.933,68.55c-14.67,29.902 -22.004,65.165 -22.004,105.787c-0,40.622 7.334,75.884 22.004,105.786c14.669,29.902 34.98,53.034 60.933,69.396c25.953,16.362 56.419,24.543 91.399,24.543Z" style="fill:#008080;fill-rule:nonzero;"/><path d="M4881.43,1047.71l-0,-126.944l103.247,0l0,-419.761l-103.247,0l-0,-126.944l308.05,0l0,204.803l-27.081,-0c15.797,-56.42 34.698,-100.145 56.701,-131.175c22.004,-31.031 46.264,-53.035 72.781,-66.011c26.518,-12.977 52.753,-19.465 78.706,-19.465c23.696,0 46.264,2.539 67.703,7.617c21.439,5.078 42.315,13.258 62.626,24.542l-44.008,169.259c-18.054,-10.156 -38.083,-18.619 -60.086,-25.389c-22.004,-6.77 -45.418,-10.156 -70.243,-10.156c-33.851,0 -64.882,11.849 -93.092,35.545c-28.209,23.696 -42.314,60.369 -42.314,110.018l-1.693,247.117l104.94,0l0,126.944l-412.99,-0Z" style="fill:#008080;fill-rule:nonzero;"/><path d="M5939.29,1066.33c-75.602,0 -142.177,-14.387 -199.725,-43.161c-57.548,-28.773 -102.683,-69.678 -135.407,-122.712c-32.723,-53.034 -49.085,-116.224 -49.085,-189.569c0,-71.089 15.798,-133.15 47.393,-186.185c31.595,-53.034 74.756,-94.22 129.483,-123.558c54.726,-29.339 116.506,-44.008 185.338,-44.008c69.96,0 130.046,14.669 180.26,44.008c50.213,29.338 88.578,69.96 115.096,121.866c26.517,51.906 39.775,112.274 39.775,181.106l0,42.315l-568.708,-0l1.692,-96.477l374.062,-0c-0,-33.852 -5.924,-62.344 -17.772,-85.476c-11.849,-23.132 -28.774,-40.622 -50.778,-52.47c-22.004,-11.848 -47.675,-17.772 -77.013,-17.772c-33.851,-0 -62.907,7.898 -87.168,23.696c-24.26,15.797 -43.161,38.647 -56.701,68.55c-13.541,29.902 -20.311,66.293 -20.311,109.171c-0,46.264 9.027,85.476 27.081,117.635c18.054,32.159 42.597,56.702 73.627,73.627c31.031,16.926 67.422,25.389 109.172,25.389c42.879,0 83.783,-7.899 122.713,-23.696c38.929,-15.797 73.063,-36.673 102.401,-62.626l59.24,123.559c-34.98,33.852 -78.141,61.779 -129.482,83.783c-51.342,22.004 -109.736,33.005 -175.183,33.005Z" style="fill:#008080;fill-rule:nonzero;"/><path d="M6733.12,1064.64c-39.493,-0 -76.448,-4.796 -110.864,-14.387c-34.416,-9.592 -64.036,-23.132 -88.861,-40.622c-24.824,-17.49 -43.443,-37.519 -55.855,-60.087l38.93,3.385l-0,94.785l-135.407,-0l-0,-225.114l125.251,0l8.463,96.477l-35.544,-67.703c19.182,30.467 47.674,54.445 85.475,71.935c37.801,17.49 77.013,26.235 117.635,26.235c32.723,0 59.522,-6.206 80.398,-18.618c20.875,-12.413 31.312,-30.467 31.312,-54.163c0,-27.081 -10.155,-46.546 -30.466,-58.394c-20.311,-11.848 -53.034,-22.85 -98.17,-33.006l-72.781,-15.233c-73.346,-16.926 -127.226,-40.622 -161.642,-71.089c-34.416,-30.466 -51.624,-76.166 -51.624,-137.099c0,-64.318 23.132,-114.531 69.396,-150.64c46.264,-36.108 106.633,-54.163 181.107,-54.163c34.98,0 68.267,4.796 99.862,14.387c31.595,9.592 58.959,22.004 82.091,37.237c23.132,15.233 39.211,33.006 48.238,53.317l-44.007,-1.693l0,-88.014l137.099,-0l0,220.036l-125.251,-0l-16.926,-126.944l35.545,82.936c-7.899,-15.797 -21.158,-29.338 -39.776,-40.622c-18.619,-11.283 -39.494,-20.311 -62.626,-27.081c-23.132,-6.77 -46.546,-10.155 -70.242,-10.155c-27.081,-0 -51.06,5.924 -71.935,17.772c-20.875,11.848 -31.313,29.62 -31.313,53.316c0,20.311 8.181,35.826 24.543,46.546c16.361,10.72 41.468,20.029 75.32,27.928l76.166,16.926c48.521,11.284 90.553,25.106 126.098,41.468c35.544,16.362 62.907,38.929 82.09,67.703c19.183,28.774 28.774,67.422 28.774,115.942c-0,45.136 -11.566,83.219 -34.698,114.25c-23.132,31.031 -53.881,54.163 -92.246,69.396c-38.365,15.233 -79.551,22.85 -123.559,22.85Z" style="fill:#008080;fill-rule:nonzero;"/><path d="M7383.07,1047.71c-67.703,-0 -119.327,-16.08 -154.872,-48.239c-35.544,-32.159 -53.316,-82.654 -53.316,-151.486l-0,-346.98l-94.785,0l0,-126.944l93.092,0l0,-221.728l206.496,-44.008l-0,265.736l160.795,0l0,126.944l-160.795,0l-0,316.513c-0,37.237 6.206,63.19 18.618,77.859c12.412,14.669 33.852,22.004 64.318,22.004l86.322,-0l0,130.329l-165.873,-0Z" style="fill:#008080;fill-rule:nonzero;"/></g></svg>