<?xml version="1.0" standalone="no"?>
<!DOCTYPE svg PUBLIC "-//W3C//DTD SVG 20010904//EN"
 "http://www.w3.org/TR/2001/REC-SVG-20010904/DTD/svg10.dtd">
<svg version="1.0" xmlns="http://www.w3.org/2000/svg"
 width="700.000000pt" height="700.000000pt" viewBox="0 0 700.000000 700.000000"
 preserveAspectRatio="xMidYMid meet">
<metadata>
Created by potrace 1.14, written by Peter Selinger 2001-2017
</metadata>
<g transform="translate(0.000000,700.000000) scale(0.100000,-0.100000)"
fill="#000000" stroke="none">
<path d="M3314 6981 c-18 -11 -33 -24 -35 -29 -2 -5 -20 -29 -40 -53 -51 -62
-187 -227 -229 -279 -31 -39 -124 -152 -168 -205 -10 -11 -55 -67 -102 -125
-47 -58 -87 -107 -90 -110 -3 -3 -34 -41 -70 -85 -35 -44 -67 -82 -70 -85 -3
-3 -43 -52 -90 -110 -113 -139 -111 -137 -143 -173 -81 -94 -82 -181 -1 -233
21 -14 56 -17 237 -17 117 0 216 -2 220 -4 4 -3 -112 -124 -258 -271 -160
-160 -269 -262 -275 -256 -5 5 -74 95 -155 199 -80 105 -151 197 -158 205 -7
8 -50 64 -96 123 -46 60 -94 113 -108 118 -48 18 -107 8 -138 -25 -10 -10
-365 -464 -410 -525 -11 -14 -100 -129 -199 -256 -208 -267 -236 -308 -236
-349 0 -37 31 -90 62 -107 15 -9 73 -14 166 -15 79 -1 146 -4 148 -7 2 -2 -22
-35 -53 -74 -32 -38 -74 -89 -93 -113 -19 -24 -47 -58 -61 -75 -14 -16 -83
-102 -154 -190 -71 -88 -132 -162 -135 -165 -4 -3 -30 -36 -58 -73 -43 -56
-52 -75 -52 -109 0 -22 8 -53 17 -69 30 -51 64 -59 237 -59 l156 0 -146 -172
c-81 -95 -166 -195 -189 -223 -24 -27 -99 -116 -167 -196 -127 -149 -151 -188
-142 -235 7 -37 41 -83 71 -95 13 -5 123 -9 244 -9 l219 0 -372 -372 c-268
-268 -375 -381 -384 -406 -17 -52 2 -110 43 -135 30 -17 66 -19 570 -20 l538
-2 1 -716 0 -716 23 -31 c12 -18 36 -35 52 -39 17 -5 198 -8 404 -8 363 0 375
1 402 21 15 12 33 31 39 43 8 16 12 226 12 714 1 381 1 702 1 714 l1 21 405 0
405 0 1 -21 c0 -12 0 -332 1 -712 0 -748 -1 -725 55 -762 24 -16 69 -18 521
-18 531 0 535 0 569 51 17 26 18 69 20 719 1 379 2 702 2 717 l1 26 405 0 405
1 0 -147 c3 -1224 4 -1299 25 -1322 40 -45 59 -47 456 -46 408 2 410 2 440 58
9 17 13 199 13 740 l1 716 535 0 c320 0 545 4 560 10 51 20 80 83 61 133 -5
14 -181 197 -391 407 l-382 382 241 0 242 0 24 26 c27 29 40 73 29 106 -5 19
-63 94 -109 144 -5 6 -30 35 -55 65 -25 29 -61 72 -81 94 -19 22 -111 130
-204 240 -93 110 -180 211 -192 225 -12 13 -21 25 -20 27 2 1 81 3 177 4 183
1 218 9 240 48 17 33 11 86 -13 122 -25 36 -468 586 -548 680 -26 30 -49 61
-51 68 -2 10 33 13 162 15 178 2 194 6 224 57 9 15 16 42 16 61 0 33 -13 53
-155 237 -192 248 -596 766 -623 800 -15 18 -33 43 -40 55 -36 56 -115 81
-169 52 -17 -8 -48 -39 -69 -68 -21 -29 -41 -55 -44 -58 -3 -3 -117 -148 -254
-322 -136 -175 -250 -318 -254 -318 -8 0 -662 653 -662 661 0 3 98 6 218 6
189 0 221 2 244 17 51 33 63 121 24 179 -20 29 -169 214 -341 422 -18 22 -70
85 -115 140 -45 55 -89 109 -98 120 -10 11 -44 54 -77 95 -33 41 -62 77 -65
80 -3 3 -22 26 -43 52 -21 26 -43 53 -50 60 -7 7 -28 33 -47 58 -19 25 -43 53
-52 64 -9 10 -52 63 -95 117 -43 54 -85 101 -93 104 -36 17 -86 15 -116 -4z
m356 -648 c156 -192 288 -352 294 -358 6 -5 27 -30 46 -55 19 -25 37 -47 40
-50 3 -3 34 -40 69 -82 l62 -78 -801 0 c-609 0 -799 3 -794 12 6 10 542 664
596 727 11 12 58 70 105 127 46 57 88 104 92 104 4 0 135 -156 291 -347z m475
-1320 c281 -280 457 -463 447 -464 -49 -3 -2428 -4 -2435 -1 -4 2 201 212 455
466 l463 463 303 0 304 0 463 -464z m-2318 21 c12 -16 62 -83 111 -148 l90
-119 -105 -104 c-68 -68 -111 -103 -126 -103 -12 0 -137 -3 -277 -5 -316 -6
-430 -7 -453 -6 -13 1 0 22 50 85 83 103 113 142 337 429 l178 227 86 -114
c48 -62 97 -127 109 -142z m3818 -110 c157 -201 284 -369 280 -372 -3 -3 -225
-6 -493 -7 l-487 0 -50 46 -49 47 29 38 c16 22 31 41 34 44 4 3 28 34 56 70
27 36 54 70 60 76 5 7 82 104 170 218 88 113 161 205 162 206 1 0 131 -165
288 -366z m-3794 -613 c15 -1 299 -341 299 -358 0 -5 -74 -82 -165 -173 l-165
-165 -495 0 c-338 -1 -491 3 -486 10 19 24 281 347 349 430 133 161 146 177
175 214 16 20 35 38 42 41 11 4 372 5 446 1z m659 -1 c0 -7 -174 -180 -181
-180 -4 0 -38 37 -75 83 -38 45 -73 85 -78 89 -5 3 4 8 20 10 45 5 314 4 314
-2z m1834 -433 c237 -239 441 -449 454 -466 l23 -31 -1452 0 c-1374 0 -1451 1
-1438 17 8 10 215 219 460 465 420 419 449 447 485 450 22 2 264 3 538 2 l499
-1 431 -436z m473 423 c-7 -8 -32 -40 -57 -70 -25 -30 -52 -63 -61 -75 -10
-11 -36 -42 -59 -69 -23 -27 -49 -60 -57 -73 l-16 -24 -158 157 c-87 87 -156
160 -154 163 2 3 131 6 288 6 252 0 284 -2 274 -15z m810 -31 c19 -24 44 -55
56 -69 12 -14 58 -70 102 -125 44 -55 83 -102 86 -105 3 -3 54 -66 114 -140
60 -74 112 -137 115 -140 12 -11 50 -63 50 -69 0 -4 -272 -6 -605 -6 l-605 0
-105 105 -105 105 61 75 c34 41 104 129 158 195 53 66 105 131 116 145 11 13
31 36 45 50 l25 25 228 -1 229 -1 35 -44z m180 -909 c7 -10 28 -36 47 -57 61
-69 120 -138 166 -193 53 -63 292 -344 324 -380 12 -14 25 -30 28 -36 5 -7
-224 -10 -746 -10 l-753 1 -63 55 c-36 30 -72 62 -80 70 -9 8 -34 30 -56 49
-21 19 -62 55 -89 80 -84 77 -207 185 -224 198 -13 10 66 12 386 13 236 0 412
4 427 10 32 12 66 65 66 103 0 32 -21 77 -46 98 -15 12 -5 15 87 19 57 3 196
4 308 2 187 -3 206 -4 218 -22z m-4257 -16 c-29 -33 -31 -42 -27 -83 7 -62 13
-74 46 -94 26 -15 67 -17 365 -17 l335 0 30 -32 c35 -37 37 -44 17 -55 -7 -4
-36 -28 -63 -53 -27 -25 -120 -108 -207 -185 l-157 -140 -639 0 c-352 -1 -640
0 -640 1 0 2 6 9 13 16 7 7 55 65 107 128 52 63 97 117 100 120 3 3 48 57 100
120 52 63 102 123 110 132 8 9 44 53 80 97 l65 80 199 1 198 0 -32 -36z m2504
-256 c39 -35 73 -65 76 -68 6 -6 378 -333 454 -399 28 -24 80 -69 116 -101 36
-32 127 -112 203 -179 85 -75 131 -121 120 -122 -23 -1 -3284 -1 -3302 0 -17
1 -24 -6 147 144 67 59 127 107 133 107 6 0 48 33 92 73 45 39 97 86 116 102
19 17 41 37 50 46 9 8 79 71 156 139 77 69 158 143 180 166 22 23 69 67 104
98 l64 56 610 0 610 0 71 -62z m2191 -988 l350 -350 -1258 0 c-1110 0 -1257 2
-1258 15 0 8 -1 53 -1 100 0 47 1 93 1 103 1 16 37 17 634 17 347 -1 651 3
674 8 62 12 96 56 89 113 -6 57 -23 80 -102 144 -37 30 -72 59 -78 65 -6 5
-40 34 -76 64 -36 30 -69 58 -74 63 -6 4 161 8 370 8 l379 0 350 -350z m-4681
292 c-27 -26 -81 -74 -118 -107 -151 -133 -156 -139 -156 -199 0 -41 34 -83
77 -94 15 -5 369 -8 786 -7 715 0 757 -1 758 -17 0 -10 1 -54 1 -98 0 -44 -1
-89 -1 -100 -1 -20 -8 -20 -1258 -20 l-1257 0 339 333 c186 182 343 337 349
343 8 8 89 12 271 12 l260 1 -51 -47z m2272 -415 c11 -11 11 -1727 1 -1734
-12 -8 -678 -6 -685 2 -4 3 -7 394 -7 868 0 681 3 863 13 867 20 9 670 6 678
-3z m-1971 -1098 l0 -639 -45 -1 c-49 0 -361 0 -397 1 l-23 0 0 639 0 639 233
0 232 0 0 -639z m3725 1 c0 -352 -3 -640 -7 -640 -90 -6 -447 0 -452 8 -5 8
-7 1261 -2 1269 0 1 105 2 231 2 l230 0 0 -639z"/>
</g>
</svg>
